# xmcd CD database file
#
# Track frame offsets:
#	187
#	12612
#	26562
#	36969
#	48782
#	61537
#	80169
#	91269
#
# Disc length: 1402 seconds
#
# Revision: 0
# Processed by: cddbd v1.4PL0 Copyright (c) Steve Scherf et al.
# Submitted via: CDex 1.50beta10
#
DISCID=5a057808
DTITLE=Charley Pride - Charley Pride Live
DYEAR=1900
DGENRE=Country
TTITLE0=A Whole Lotta Things To Sing About
TTITLE1=Kaw-Liga
TTITLE2=Oklahoma Morning
TTITLE3=Is Anybody Goin' To San Antone
TTITLE4=Since You Came Into My Life
TTITLE5=Tennessee Girl
TTITLE6=You're My Jamaica
TTITLE7=When I Stop Leaving (I'll Be Gone)
EXTD=
EXTT0=
EXTT1=
EXTT2=
EXTT3=
EXTT4=
EXTT5=
EXTT6=
EXTT7=
PLAYORDER=
